{"title":"Pelican Blood 2010 DVD9rip English Klam","uid":6397701,"size":1550011958,"categoryP":"video","categoryS":"movies","magnet":"?xt=urn:btih:b5343f9452ca0e198c4f6c1c93e7dcb4b1199c85&amp;dn=Pelican+Blood+2010+DVD9rip+English+Klam&amp;tr=udp%3A%2F%2Ftracker.openbittorrent.com%3A80&amp;tr=udp%3A%2F%2Fopen.demonii.com%3A1337&amp;tr=udp%3A%2F%2Ftracker.coppersurfer.tk%3A6969&amp;tr=udp%3A%2F%2Fexodus.desync.com%3A6969","seeders":1,"leechers":0,"uploader":"Klambake","files":-1,"time":1305566109,"description":"With: Harry Treadaway, Emma Booth and Arthur Darvill\n\nPelican Blood vertelt het verhaal van Nikko, een grappige, maar links georiÃƒÂ«nteerde jongeman die in Londen woont. Als zijn relatie met zijn vriendin Stevie op een rampzalige wijze eindigt, leeft hij met de dag en gooit hij al zijn energie in zijn hobby: vogels spotten. Net als het leven draaglijk wordt, komt Stevie weer opdagen, waardoor een breuk tussen Nikko en al zijn vrienden dreigt, die hem waarschuwen dat ze hem zal vernietigen. Ze zijn zich volledig bewust van de manier waarop het paar elkaar voor het eerst ontmoette: op een zelfmoord website. Hun intense, onrustwekkende en seksueel geladen relatie zet zich verder, waardoor de relatie tussen Nikko, Stevie en zijn vrienden en hobby verzinkt in een bedenkelijke chaos.\n\nPelican Blood tells the story of Nikko, a funny but left-of-center young man living in London. Following a disastrous break up with his girlfriend, Stevie, he's taking life one day at a time, throwing all his energy into his hobby: bird spotting Just as life becomes bearable, Stevie arrives back on the scene, causing a rift between Nikko and all his friends, who warn him she will destroy him. They are fully aware of how the couple first met: on a suicide website, pledging they will 'end it all together'. As their intense, disturbing and highly sexual connection resumes, the relationship between Nikko, Stevie, his friends and his hobby are thrown into questionable chaos. Pelican Blood is a funny and passionate look at the things that make us tick, and the things we tick off the list.\n\nGeneral:\n\nComplete name                    : Pelican Blood\\Pelican Blood.avi\nFormat                           : AVI\nFormat/Info                      : Audio Video Interleave\nFile size                        : 1.44 GiB\nDuration                         : 1h 34mn\nOverall bit rate                 : 2 187 Kbps\n\nVideo:\n\nFormat                           : MPEG-4 Visual\nFormat profile                   : Simple@L3\nFormat settings, BVOP            : No\nFormat settings, QPel            : No\nFormat settings, GMC             : No warppoints\nFormat settings, Matrix          : Default (H.263)\nCodec ID                         : XVID\nCodec ID/Hint                    : XviD\nDuration                         : 1h 34mn\nBit rate                         : 1 728 Kbps\nWidth                            : 652 pixels\nHeight                           : 352 pixels\nDisplay aspect ratio             : 1.852\nFrame rate                       : 25.000 fps\nColor space                      : YUV\nChroma subsampling               : 4:2:0\nBit depth                        : 8 bits\nScan type                        : Progressive\nBits/(Pixel*Frame)               : 0.301\nStream size                      : 1.14 GiB (79%)\nWriting library                  : XviD 1.1.2 (UTC 2006-11-01)\n\n:\nAudio\n\nFormat                           : AC-3\nFormat/Info                      : Audio Coding 3\nMode extension                   : CM (complete main)\nCodec ID                         : 2000\nDuration                         : 1h 34mn\nBit rate mode                    : Constant\nBit rate                         : 448 Kbps\nChannel(s)                       : 6 channels\nChannel positions                : Front: L C R, Side: L R, LFE\nSampling rate                    : 48.0 KHz\nBit depth                        : 16 bits\nStream size                      : 303 MiB (20%)\nAlignment                        : Aligned on interleaves\nInterleave, duration             : 32 ms (0.80 video frame)\nInterleave, preload duration     : 64 ms\n","torrent":{"xt":"urn:btih:b5343f9452ca0e198c4f6c1c93e7dcb4b1199c85","amp;dn":"Pelican+Blood+2010+DVD9rip+English+Klam","amp;tr":["udp%3A%2F%2Ftracker.openbittorrent.com%3A80","udp%3A%2F%2Fopen.demonii.com%3A1337","udp%3A%2F%2Ftracker.coppersurfer.tk%3A6969","udp%3A%2F%2Fexodus.desync.com%3A6969"],"infoHash":"b5343f9452ca0e198c4f6c1c93e7dcb4b1199c85","infoHashBuffer":{"type":"Buffer","data":[181,52,63,148,82,202,14,25,140,79,108,28,147,231,220,180,177,25,156,133]},"announce":[],"urlList":[]}}